<?xml version="1.0" encoding="utf-8" standalone="no"?>
<!DOCTYPE svg PUBLIC "-//W3C//DTD SVG 1.1//EN"
  "http://www.w3.org/Graphics/SVG/1.1/DTD/svg11.dtd">
<svg xmlns:xlink="http://www.w3.org/1999/xlink" width="1565.292751pt" height="1246.902658pt" viewBox="0 0 1565.292751 1246.902658" xmlns="http://www.w3.org/2000/svg" version="1.1">
 <metadata>
  <rdf:RDF xmlns:dc="http://purl.org/dc/elements/1.1/" xmlns:cc="http://creativecommons.org/ns#" xmlns:rdf="http://www.w3.org/1999/02/22-rdf-syntax-ns#">
   <cc:Work>
    <dc:type rdf:resource="http://purl.org/dc/dcmitype/StillImage"/>
    <dc:date>2024-03-24T14:26:59.385238</dc:date>
    <dc:format>image/svg+xml</dc:format>
    <dc:creator>
     <cc:Agent>
      <dc:title>Matplotlib v3.5.2, https://matplotlib.org/</dc:title>
     </cc:Agent>
    </dc:creator>
   </cc:Work>
  </rdf:RDF>
 </metadata>
 <defs>
  <style type="text/css">*{stroke-linejoin: round; stroke-linecap: butt}</style>
 </defs>
 <g id="figure_1">
  <g id="patch_1">
   <path d="M 0 1246.902658 
L 1565.292751 1246.902658 
L 1565.292751 0 
L 0 0 
z
" style="fill: #ffffff"/>
  </g>
  <g id="axes_1">
   <g id="patch_2">
    <path d="M 163.092751 537.934219 
L 1558.092751 537.934219 
L 1558.092751 33.934219 
L 163.092751 33.934219 
z
" style="fill: #ffffff"/>
   </g>
   <g id="patch_3">
    <path d="M 226.501841 3957072.044116 
L 790.138205 3957072.044116 
L 790.138205 56.84331 
L 226.501841 56.84331 
z
" clip-path="url(#p050ccd85ea)" style="fill: #1f77b4; opacity: 0.3"/>
   </g>
   <g id="patch_4">
    <path d="M 931.047296 3957072.044116 
L 1494.68366 3957072.044116 
L 1494.68366 515.025128 
L 931.047296 515.025128 
z
" clip-path="url(#p050ccd85ea)" style="fill: #1f77b4; opacity: 0.3"/>
   </g>
   <g id="matplotlib.axis_1">
    <g id="xtick_1">
     <g id="line2d_1">
      <defs>
       <path id="m22c564e9bf" d="M 0 0 
L 0 3.5 
" style="stroke: #000000"/>
      </defs>
      <g>
       <use xlink:href="#m22c564e9bf" x="508.320023" y="567.934219" style="stroke: #000000"/>
      </g>
     </g>
     <g id="text_1">
      <!-- C 1 -->
      <g transform="translate(465.969074 621.961685)scale(0.6 -0.6)">
       <defs>
        <path id="NimbusRomNo9L-Regu-43" d="M 3968 2905 
L 3910 4352 
L 3776 4352 
C 3738 4217 3635 4140 3507 4140 
C 3450 4140 3354 4159 3258 4198 
C 2944 4300 2624 4352 2323 4352 
C 1798 4352 1267 4153 870 3801 
C 422 3405 179 2809 179 2105 
C 179 1510 371 960 698 595 
C 1082 179 1670 -64 2304 -64 
C 3027 -64 3661 230 4051 748 
L 3936 864 
C 3462 409 3040 217 2509 217 
C 2106 217 1747 345 1472 588 
C 1120 902 922 1478 922 2188 
C 922 3347 1517 4095 2445 4095 
C 2810 4095 3142 3961 3398 3705 
C 3603 3501 3699 3321 3821 2905 
L 3968 2905 
z
" transform="scale(0.015625)"/>
        <path id="NimbusRomNo9L-Regu-31" d="M 1862 4352 
L 710 3776 
L 710 3686 
C 787 3718 858 3743 883 3756 
C 998 3801 1107 3826 1171 3826 
C 1306 3826 1363 3731 1363 3525 
L 1363 599 
C 1363 386 1312 238 1210 179 
C 1114 121 1024 102 755 96 
L 755 0 
L 2522 0 
L 2522 96 
C 2016 102 1914 167 1914 477 
L 1914 4339 
L 1862 4352 
z
" transform="scale(0.015625)"/>
       </defs>
       <use xlink:href="#NimbusRomNo9L-Regu-43" transform="scale(0.996264)"/>
       <use xlink:href="#NimbusRomNo9L-Regu-31" transform="translate(91.356631 0)scale(0.996264)"/>
      </g>
     </g>
    </g>
    <g id="xtick_2">
     <g id="line2d_2">
      <g>
       <use xlink:href="#m22c564e9bf" x="1212.865478" y="567.934219" style="stroke: #000000"/>
      </g>
     </g>
     <g id="text_2">
      <!-- C 2 -->
      <g transform="translate(1170.514528 621.961685)scale(0.6 -0.6)">
       <defs>
        <path id="NimbusRomNo9L-Regu-32" d="M 3040 879 
L 2957 912 
C 2720 544 2637 486 2349 486 
L 819 486 
L 1894 1621 
C 2464 2221 2714 2711 2714 3214 
C 2714 3858 2195 4352 1530 4352 
C 1178 4352 845 4211 608 3955 
C 403 3736 307 3530 198 3072 
L 333 3039 
C 589 3671 819 3878 1261 3878 
C 1798 3878 2163 3510 2163 2969 
C 2163 2466 1869 1866 1331 1292 
L 192 76 
L 192 0 
L 2688 0 
L 3040 879 
z
" transform="scale(0.015625)"/>
       </defs>
       <use xlink:href="#NimbusRomNo9L-Regu-43" transform="scale(0.996264)"/>
       <use xlink:href="#NimbusRomNo9L-Regu-32" transform="translate(91.356631 0)scale(0.996264)"/>
      </g>
     </g>
    </g>
   </g>
   <g id="matplotlib.axis_2">
    <g id="ytick_1">
     <g id="line2d_3">
      <defs>
       <path id="m6dfea61783" d="M 0 0 
L -2 0 
"/>
      </defs>
      <g>
       <use xlink:href="#m6dfea61783" x="133.092751" y="447.020085"/>
      </g>
     </g>
     <g id="text_3">
      <!-- $\mathdefault{1.8\times10^{2}}$ -->
      <g transform="translate(53.934219 454.308223)scale(0.2 -0.2)">
       <defs>
        <path id="CMMI10-3a" d="M 1229 339 
C 1229 524 1075 678 890 678 
C 704 678 550 524 550 339 
C 550 153 704 0 890 0 
C 1075 0 1229 153 1229 339 
z
" transform="scale(0.015625)"/>
        <path id="NimbusRomNo9L-Regu-38" d="M 1856 2400 
C 2490 2739 2714 3008 2714 3443 
C 2714 3968 2253 4352 1613 4352 
C 915 4352 397 3923 397 3341 
C 397 2924 518 2739 1190 2150 
C 499 1625 358 1427 358 992 
C 358 371 864 -64 1587 -64 
C 2355 -64 2848 358 2848 1017 
C 2848 1510 2630 1824 1856 2400 
z
M 1741 1740 
C 2208 1408 2362 1177 2362 819 
C 2362 403 2074 115 1658 115 
C 1171 115 845 486 845 1043 
C 845 1452 986 1721 1357 2022 
L 1741 1740 
z
M 1670 2515 
C 1101 2886 870 3180 870 3539 
C 870 3910 1158 4172 1562 4172 
C 1997 4172 2272 3891 2272 3449 
C 2272 3084 2093 2796 1728 2553 
C 1696 2534 1696 2534 1670 2515 
z
" transform="scale(0.015625)"/>
        <path id="CMSY10-2" d="M 2490 1775 
L 1210 3046 
C 1133 3123 1120 3136 1069 3136 
C 1005 3136 941 3078 941 3008 
C 941 2963 954 2950 1024 2880 
L 2304 1596 
L 1024 313 
C 954 243 941 230 941 185 
C 941 115 1005 57 1069 57 
C 1120 57 1133 70 1210 147 
L 2483 1418 
L 3808 95 
C 3821 89 3866 57 3904 57 
C 3981 57 4032 115 4032 185 
C 4032 198 4032 223 4013 255 
C 4006 268 2989 1271 2669 1596 
L 3840 2765 
C 3872 2803 3968 2886 4000 2925 
C 4006 2937 4032 2963 4032 3008 
C 4032 3078 3981 3136 3904 3136 
C 3853 3136 3827 3110 3757 3040 
L 2490 1775 
z
" transform="scale(0.015625)"/>
        <path id="NimbusRomNo9L-Regu-30" d="M 1626 4352 
C 1274 4352 1005 4243 768 4019 
C 397 3661 154 2924 154 2176 
C 154 1478 365 729 666 371 
C 902 89 1229 -64 1600 -64 
C 1926 -64 2202 44 2432 268 
C 2803 620 3046 1363 3046 2137 
C 3046 3449 2464 4352 1626 4352 
z
M 1606 4185 
C 2144 4185 2432 3462 2432 2124 
C 2432 787 2150 102 1600 102 
C 1050 102 768 787 768 2118 
C 768 3475 1056 4185 1606 4185 
z
" transform="scale(0.015625)"/>
       </defs>
       <use xlink:href="#NimbusRomNo9L-Regu-31" transform="scale(0.996264)"/>
       <use xlink:href="#CMMI10-3a" transform="translate(49.8132 0)scale(0.996264)"/>
       <use xlink:href="#NimbusRomNo9L-Regu-38" transform="translate(77.408707 0)scale(0.996264)"/>
       <use xlink:href="#CMSY10-2" transform="translate(141.058874 0)scale(0.996264)"/>
       <use xlink:href="#NimbusRomNo9L-Regu-31" transform="translate(232.304548 0)scale(0.996264)"/>
       <use xlink:href="#NimbusRomNo9L-Regu-30" transform="translate(282.117748 0)scale(0.996264)"/>
       <use xlink:href="#NimbusRomNo9L-Regu-32" transform="translate(331.930949 36.163231)scale(0.737241)"/>
      </g>
     </g>
    </g>
    <g id="ytick_2">
     <g id="line2d_4">
      <g>
       <use xlink:href="#m6dfea61783" x="133.092751" y="354.32325"/>
      </g>
     </g>
     <g id="text_4">
      <!-- $\mathdefault{1.9\times10^{2}}$ -->
      <g transform="translate(53.934219 361.611388)scale(0.2 -0.2)">
       <defs>
        <path id="NimbusRomNo9L-Regu-39" d="M 378 -122 
C 1094 -39 1446 83 1882 396 
C 2547 883 2938 1676 2938 2542 
C 2938 3601 2349 4352 1523 4352 
C 762 4352 192 3704 192 2837 
C 192 2055 653 1536 1344 1536 
C 1696 1536 1965 1638 2304 1901 
C 2042 857 1331 172 358 6 
L 378 -122 
z
M 2317 2292 
C 2317 2164 2291 2106 2221 2048 
C 2042 1894 1805 1811 1574 1811 
C 1088 1811 781 2292 781 3056 
C 781 3421 883 3806 1018 3973 
C 1126 4102 1286 4172 1472 4172 
C 2029 4172 2317 3620 2317 2542 
L 2317 2292 
z
" transform="scale(0.015625)"/>
       </defs>
       <use xlink:href="#NimbusRomNo9L-Regu-31" transform="scale(0.996264)"/>
       <use xlink:href="#CMMI10-3a" transform="translate(49.8132 0)scale(0.996264)"/>
       <use xlink:href="#NimbusRomNo9L-Regu-39" transform="translate(77.408707 0)scale(0.996264)"/>
       <use xlink:href="#CMSY10-2" transform="translate(141.058874 0)scale(0.996264)"/>
       <use xlink:href="#NimbusRomNo9L-Regu-31" transform="translate(232.304548 0)scale(0.996264)"/>
       <use xlink:href="#NimbusRomNo9L-Regu-30" transform="translate(282.117748 0)scale(0.996264)"/>
       <use xlink:href="#NimbusRomNo9L-Regu-32" transform="translate(331.930949 36.163231)scale(0.737241)"/>
      </g>
     </g>
    </g>
    <g id="ytick_3">
     <g id="line2d_5">
      <g>
       <use xlink:href="#m6dfea61783" x="133.092751" y="266.382241"/>
      </g>
     </g>
     <g id="text_5">
      <!-- $\mathdefault{2\times10^{2}}$ -->
      <g transform="translate(69.415958 273.670378)scale(0.2 -0.2)">
       <use xlink:href="#NimbusRomNo9L-Regu-32" transform="scale(0.996264)"/>
       <use xlink:href="#CMSY10-2" transform="translate(63.650167 0)scale(0.996264)"/>
       <use xlink:href="#NimbusRomNo9L-Regu-31" transform="translate(154.89584 0)scale(0.996264)"/>
       <use xlink:href="#NimbusRomNo9L-Regu-30" transform="translate(204.709041 0)scale(0.996264)"/>
       <use xlink:href="#NimbusRomNo9L-Regu-32" transform="translate(254.522241 36.163231)scale(0.737241)"/>
      </g>
     </g>
    </g>
    <g id="ytick_4">
     <g id="line2d_6">
      <g>
       <use xlink:href="#m6dfea61783" x="133.092751" y="182.732782"/>
      </g>
     </g>
     <g id="text_6">
      <!-- $\mathdefault{2.1\times10^{2}}$ -->
      <g transform="translate(53.934219 190.020919)scale(0.2 -0.2)">
       <use xlink:href="#NimbusRomNo9L-Regu-32" transform="scale(0.996264)"/>
       <use xlink:href="#CMMI10-3a" transform="translate(49.8132 0)scale(0.996264)"/>
       <use xlink:href="#NimbusRomNo9L-Regu-31" transform="translate(77.408707 0)scale(0.996264)"/>
       <use xlink:href="#CMSY10-2" transform="translate(141.058874 0)scale(0.996264)"/>
       <use xlink:href="#NimbusRomNo9L-Regu-31" transform="translate(232.304548 0)scale(0.996264)"/>
       <use xlink:href="#NimbusRomNo9L-Regu-30" transform="translate(282.117748 0)scale(0.996264)"/>
       <use xlink:href="#NimbusRomNo9L-Regu-32" transform="translate(331.930949 36.163231)scale(0.737241)"/>
      </g>
     </g>
    </g>
    <g id="ytick_5">
     <g id="line2d_7">
      <g>
       <use xlink:href="#m6dfea61783" x="133.092751" y="102.975434"/>
      </g>
     </g>
     <g id="text_7">
      <!-- $\mathdefault{2.2\times10^{2}}$ -->
      <g transform="translate(53.934219 110.263571)scale(0.2 -0.2)">
       <use xlink:href="#NimbusRomNo9L-Regu-32" transform="scale(0.996264)"/>
       <use xlink:href="#CMMI10-3a" transform="translate(49.8132 0)scale(0.996264)"/>
       <use xlink:href="#NimbusRomNo9L-Regu-32" transform="translate(77.408707 0)scale(0.996264)"/>
       <use xlink:href="#CMSY10-2" transform="translate(141.058874 0)scale(0.996264)"/>
       <use xlink:href="#NimbusRomNo9L-Regu-31" transform="translate(232.304548 0)scale(0.996264)"/>
       <use xlink:href="#NimbusRomNo9L-Regu-30" transform="translate(282.117748 0)scale(0.996264)"/>
       <use xlink:href="#NimbusRomNo9L-Regu-32" transform="translate(331.930949 36.163231)scale(0.737241)"/>
      </g>
     </g>
    </g>
    <g id="text_8">
     <!-- Cluster size -->
     <g transform="translate(27.463733 356.080001)rotate(-90)scale(0.3 -0.3)">
      <defs>
       <path id="NimbusRomNo9L-Regu-6c" d="M 122 3987 
L 160 3987 
C 230 3993 307 4000 358 4000 
C 563 4000 627 3910 627 3609 
L 627 556 
C 627 211 538 128 134 96 
L 134 0 
L 1645 0 
L 1645 96 
C 1242 121 1165 185 1165 537 
L 1165 4358 
L 1139 4371 
C 806 4262 563 4198 122 4089 
L 122 3987 
z
" transform="scale(0.015625)"/>
       <path id="NimbusRomNo9L-Regu-75" d="M 3066 319 
L 3034 319 
C 2739 319 2669 390 2669 684 
L 2669 2880 
L 1658 2880 
L 1658 2771 
C 2054 2752 2131 2688 2131 2368 
L 2131 864 
C 2131 684 2099 595 2010 524 
C 1837 384 1638 307 1446 307 
C 1197 307 992 524 992 793 
L 992 2880 
L 58 2880 
L 58 2790 
C 365 2771 454 2675 454 2380 
L 454 768 
C 454 262 762 -64 1229 -64 
C 1466 -64 1715 38 1888 211 
L 2163 486 
L 2163 -45 
L 2189 -64 
C 2509 64 2739 134 3066 224 
L 3066 319 
z
" transform="scale(0.015625)"/>
       <path id="NimbusRomNo9L-Regu-73" d="M 2016 2009 
L 1990 2880 
L 1920 2880 
L 1907 2867 
C 1850 2822 1843 2815 1818 2815 
C 1779 2815 1715 2828 1645 2860 
C 1504 2918 1363 2944 1197 2944 
C 691 2944 326 2617 326 2155 
C 326 1796 531 1539 1075 1231 
L 1446 1019 
C 1670 891 1779 737 1779 538 
C 1779 256 1574 76 1248 76 
C 1030 76 832 160 710 301 
C 576 461 518 609 435 974 
L 333 974 
L 333 -26 
L 416 -26 
C 461 38 486 51 563 51 
C 621 51 710 38 858 0 
C 1037 -39 1210 -64 1325 -64 
C 1818 -64 2227 307 2227 756 
C 2227 1077 2074 1289 1690 1520 
L 998 1930 
C 819 2033 723 2193 723 2366 
C 723 2623 922 2803 1216 2803 
C 1581 2803 1773 2585 1920 2014 
L 2016 2009 
z
" transform="scale(0.015625)"/>
       <path id="NimbusRomNo9L-Regu-74" d="M 1632 2880 
L 986 2880 
L 986 3622 
C 986 3686 979 3705 941 3705 
C 896 3648 858 3590 813 3526 
C 570 3174 294 2867 192 2841 
C 122 2796 83 2751 83 2719 
C 83 2700 90 2687 109 2675 
L 448 2675 
L 448 748 
C 448 211 640 -64 1018 -64 
C 1331 -64 1574 89 1786 422 
L 1702 492 
C 1568 332 1459 268 1318 268 
C 1082 268 986 441 986 844 
L 986 2675 
L 1632 2675 
L 1632 2880 
z
" transform="scale(0.015625)"/>
       <path id="NimbusRomNo9L-Regu-65" d="M 2611 1052 
C 2304 564 2029 377 1619 377 
C 1254 377 979 564 794 930 
C 678 1174 634 1386 621 1779 
L 2592 1779 
C 2541 2193 2477 2377 2317 2580 
C 2125 2809 1830 2944 1498 2944 
C 1178 2944 877 2828 634 2612 
C 333 2351 160 1900 160 1374 
C 160 486 621 -64 1357 -64 
C 1965 -64 2445 313 2714 1007 
L 2611 1052 
z
M 634 1984 
C 704 2478 922 2713 1312 2713 
C 1702 2713 1856 2535 1939 1984 
L 634 1984 
z
" transform="scale(0.015625)"/>
       <path id="NimbusRomNo9L-Regu-72" d="M 45 2496 
C 134 2515 192 2521 269 2521 
C 429 2521 486 2419 486 2137 
L 486 537 
C 486 217 442 172 32 96 
L 32 0 
L 1568 0 
L 1568 96 
C 1133 115 1024 211 1024 576 
L 1024 2016 
C 1024 2220 1299 2540 1472 2540 
C 1510 2540 1568 2508 1638 2444 
C 1741 2355 1811 2316 1894 2316 
C 2048 2316 2144 2425 2144 2604 
C 2144 2815 2010 2944 1792 2944 
C 1523 2944 1338 2796 1024 2342 
L 1024 2931 
L 992 2944 
C 653 2803 422 2720 45 2598 
L 45 2496 
z
" transform="scale(0.015625)"/>
       <path id="NimbusRomNo9L-Regu-69" d="M 1120 2944 
L 128 2592 
L 128 2496 
L 179 2502 
C 256 2515 339 2521 397 2521 
C 550 2521 608 2419 608 2137 
L 608 652 
C 608 192 544 121 102 96 
L 102 0 
L 1619 0 
L 1619 96 
C 1197 128 1146 192 1146 652 
L 1146 2924 
L 1120 2944 
z
M 819 4352 
C 646 4352 499 4204 499 4025 
C 499 3846 640 3699 819 3699 
C 1005 3699 1152 3839 1152 4025 
C 1152 4204 1005 4352 819 4352 
z
" transform="scale(0.015625)"/>
       <path id="NimbusRomNo9L-Regu-7a" d="M 2675 864 
L 2560 889 
C 2496 569 2458 467 2374 358 
C 2285 249 2067 192 1741 192 
L 858 192 
L 2579 2783 
L 2579 2880 
L 358 2880 
L 339 2124 
L 454 2124 
C 512 2592 608 2687 992 2687 
L 1875 2687 
L 173 96 
L 173 0 
L 2586 0 
L 2675 864 
z
" transform="scale(0.015625)"/>
      </defs>
      <use xlink:href="#NimbusRomNo9L-Regu-43" transform="scale(0.996264)"/>
      <use xlink:href="#NimbusRomNo9L-Regu-6c" transform="translate(66.450031 0)scale(0.996264)"/>
      <use xlink:href="#NimbusRomNo9L-Regu-75" transform="translate(94.145201 0)scale(0.996264)"/>
      <use xlink:href="#NimbusRomNo9L-Regu-73" transform="translate(143.958401 0)scale(0.996264)"/>
      <use xlink:href="#NimbusRomNo9L-Regu-74" transform="translate(182.712107 0)scale(0.996264)"/>
      <use xlink:href="#NimbusRomNo9L-Regu-65" transform="translate(210.407277 0)scale(0.996264)"/>
      <use xlink:href="#NimbusRomNo9L-Regu-72" transform="translate(254.640846 0)scale(0.996264)"/>
      <use xlink:href="#NimbusRomNo9L-Regu-73" transform="translate(312.722676 0)scale(0.996264)"/>
      <use xlink:href="#NimbusRomNo9L-Regu-69" transform="translate(351.476382 0)scale(0.996264)"/>
      <use xlink:href="#NimbusRomNo9L-Regu-7a" transform="translate(379.171552 0)scale(0.996264)"/>
      <use xlink:href="#NimbusRomNo9L-Regu-65" transform="translate(423.40512 0)scale(0.996264)"/>
     </g>
    </g>
   </g>
   <g id="patch_5">
    <path d="M 133.092751 537.934219 
L 133.092751 33.934219 
" style="fill: none; stroke: #000000; stroke-width: 0.75; stroke-linejoin: miter; stroke-linecap: square"/>
   </g>
   <g id="patch_6">
    <path d="M 163.092751 567.934219 
L 1558.092751 567.934219 
" style="fill: none; stroke: #000000; stroke-width: 0.75; stroke-linejoin: miter; stroke-linecap: square"/>
   </g>
   <g id="text_9">
    <!-- Cluster Enrichment for t-SNE, components = 2 -->
    <g transform="translate(578.632744 27.463733)scale(0.3 -0.3)">
     <defs>
      <path id="NimbusRomNo9L-Regu-45" d="M 3821 1087 
L 3642 1087 
C 3322 391 3046 236 2131 236 
L 1958 236 
C 1645 236 1376 269 1331 314 
C 1299 333 1286 404 1286 513 
L 1286 2105 
L 2272 2105 
C 2797 2105 2893 2021 2976 1487 
L 3123 1487 
L 3123 2966 
L 2976 2966 
C 2931 2708 2906 2613 2835 2525 
C 2752 2418 2573 2368 2272 2368 
L 1286 2368 
L 1286 3766 
C 1286 3942 1325 3980 1498 3980 
L 2362 3980 
C 3085 3980 3226 3886 3334 3319 
L 3494 3319 
L 3475 4224 
L 77 4224 
L 77 4102 
C 550 4064 634 3975 634 3528 
L 634 695 
C 634 249 544 153 77 121 
L 77 0 
L 3533 0 
L 3821 1087 
z
" transform="scale(0.015625)"/>
      <path id="NimbusRomNo9L-Regu-6e" d="M 102 2547 
C 141 2566 205 2572 275 2572 
C 454 2572 512 2476 512 2163 
L 512 576 
C 512 211 442 121 115 96 
L 115 0 
L 1472 0 
L 1472 96 
C 1146 121 1050 198 1050 428 
L 1050 2227 
C 1357 2515 1498 2591 1709 2591 
C 2022 2591 2176 2393 2176 1971 
L 2176 633 
C 2176 230 2093 121 1773 96 
L 1773 0 
L 3104 0 
L 3104 96 
C 2790 128 2714 204 2714 518 
L 2714 1984 
C 2714 2585 2432 2944 1958 2944 
C 1664 2944 1466 2835 1030 2425 
L 1030 2931 
L 986 2944 
C 672 2828 454 2758 102 2655 
L 102 2547 
z
" transform="scale(0.015625)"/>
      <path id="NimbusRomNo9L-Regu-63" d="M 2547 998 
C 2240 550 2010 396 1645 396 
C 1062 396 653 908 653 1644 
C 653 2303 1005 2758 1523 2758 
C 1754 2758 1837 2687 1901 2451 
L 1939 2310 
C 1990 2131 2106 2015 2240 2015 
C 2406 2015 2547 2137 2547 2284 
C 2547 2643 2099 2944 1562 2944 
C 1248 2944 922 2815 659 2585 
C 339 2303 160 1868 160 1363 
C 160 531 666 -64 1376 -64 
C 1664 -64 1920 38 2150 236 
C 2323 390 2445 563 2637 940 
L 2547 998 
z
" transform="scale(0.015625)"/>
      <path id="NimbusRomNo9L-Regu-68" d="M 1005 2195 
C 1274 2489 1466 2598 1715 2598 
C 2035 2598 2195 2368 2195 1920 
L 2195 652 
C 2195 217 2131 134 1760 96 
L 1760 0 
L 3117 0 
L 3117 96 
C 2771 160 2733 211 2733 652 
L 2733 1926 
C 2733 2598 2464 2944 1946 2944 
C 1568 2944 1299 2790 1005 2406 
L 1005 4352 
L 973 4371 
C 755 4294 595 4243 237 4140 
L 64 4089 
L 64 3987 
C 90 3993 109 3993 141 3993 
C 416 3993 467 3942 467 3667 
L 467 652 
C 467 204 429 147 58 96 
L 58 0 
L 1440 0 
L 1440 96 
C 1069 134 1005 211 1005 652 
L 1005 2195 
z
" transform="scale(0.015625)"/>
      <path id="NimbusRomNo9L-Regu-6d" d="M 122 2547 
C 205 2566 256 2572 326 2572 
C 493 2572 550 2470 550 2163 
L 550 544 
C 550 198 461 102 102 96 
L 102 0 
L 1523 0 
L 1523 96 
C 1184 108 1088 179 1088 428 
L 1088 2233 
C 1088 2246 1139 2310 1184 2355 
C 1344 2502 1619 2611 1843 2611 
C 2125 2611 2266 2387 2266 1939 
L 2266 550 
C 2266 192 2195 121 1830 96 
L 1830 0 
L 3264 0 
L 3264 96 
C 2899 102 2803 211 2803 608 
L 2803 2220 
C 2995 2496 3206 2611 3501 2611 
C 3866 2611 3981 2438 3981 1907 
L 3981 556 
C 3981 192 3930 140 3558 96 
L 3558 0 
L 4960 0 
L 4960 96 
L 4794 108 
C 4602 121 4518 236 4518 486 
L 4518 1804 
C 4518 2560 4269 2944 3776 2944 
C 3405 2944 3078 2777 2733 2406 
C 2618 2771 2400 2944 2054 2944 
C 1773 2944 1594 2854 1062 2451 
L 1062 2931 
L 1018 2944 
C 691 2822 474 2751 122 2655 
L 122 2547 
z
" transform="scale(0.015625)"/>
      <path id="NimbusRomNo9L-Regu-66" d="M 1978 2880 
L 1190 2880 
L 1190 3611 
C 1190 3977 1312 4172 1555 4172 
C 1690 4172 1779 4109 1894 3926 
C 1997 3762 2074 3699 2182 3699 
C 2330 3699 2451 3813 2451 3958 
C 2451 4185 2170 4352 1786 4352 
C 1389 4352 1050 4179 883 3889 
C 717 3611 666 3384 659 2880 
L 134 2880 
L 134 2675 
L 659 2675 
L 659 665 
C 659 198 589 121 128 96 
L 128 0 
L 1792 0 
L 1792 96 
C 1267 115 1197 185 1197 665 
L 1197 2675 
L 1978 2675 
L 1978 2880 
z
" transform="scale(0.015625)"/>
      <path id="NimbusRomNo9L-Regu-6f" d="M 1600 2944 
C 768 2944 186 2329 186 1446 
C 186 582 781 -64 1587 -64 
C 2394 -64 3008 614 3008 1497 
C 3008 2336 2419 2944 1600 2944 
z
M 1517 2764 
C 2054 2764 2432 2150 2432 1273 
C 2432 550 2144 115 1664 115 
C 1414 115 1178 268 1043 524 
C 864 857 762 1305 762 1760 
C 762 2368 1062 2764 1517 2764 
z
" transform="scale(0.015625)"/>
      <path id="NimbusRomNo9L-Regu-2d" d="M 250 1664 
L 250 1260 
L 1824 1260 
L 1824 1664 
L 250 1664 
z
" transform="scale(0.015625)"/>
      <path id="NimbusRomNo9L-Regu-53" d="M 2861 4313 
L 2726 4313 
C 2701 4166 2630 4095 2522 4095 
C 2458 4095 2349 4121 2240 4172 
C 2003 4300 1766 4352 1562 4352 
C 1286 4352 1005 4243 794 4057 
C 570 3859 454 3590 454 3257 
C 454 2745 736 2387 1453 2009 
C 1914 1766 2246 1504 2406 1260 
C 2464 1177 2496 1043 2496 889 
C 2496 460 2176 166 1709 166 
C 1139 166 736 518 416 1299 
L 269 1299 
L 461 -58 
L 602 -58 
C 608 38 685 128 781 128 
C 851 128 960 102 1082 57 
C 1325 -13 1581 -64 1837 -64 
C 2573 -64 3142 441 3142 1100 
C 3142 1625 2790 2041 1946 2496 
C 1274 2867 1005 3148 1005 3494 
C 1005 3846 1274 4089 1670 4089 
C 1958 4089 2227 3968 2451 3737 
C 2650 3533 2739 3366 2842 2988 
L 3002 2988 
L 2861 4313 
z
" transform="scale(0.015625)"/>
      <path id="NimbusRomNo9L-Regu-4e" d="M 3917 -64 
L 3917 3287 
C 3917 3669 3981 3905 4102 3988 
C 4192 4051 4282 4077 4525 4102 
L 4525 4224 
L 3021 4224 
L 3021 4102 
C 3264 4083 3354 4058 3450 4000 
C 3578 3911 3635 3682 3635 3287 
L 3635 1140 
L 1171 4224 
L 77 4224 
L 77 4102 
C 352 4102 442 4051 698 3752 
L 698 943 
C 698 281 608 160 77 121 
L 77 0 
L 1581 0 
L 1581 121 
C 1088 147 979 294 979 940 
L 979 3449 
L 3808 -64 
L 3917 -64 
z
" transform="scale(0.015625)"/>
      <path id="NimbusRomNo9L-Regu-2c" d="M 531 -890 
C 960 -679 1248 -289 1248 96 
C 1248 416 1024 665 736 665 
C 512 665 358 518 358 300 
C 358 57 506 -64 736 -64 
C 774 -64 819 -58 858 -52 
C 902 0 902 0 909 0 
C 960 0 998 -39 998 -90 
C 998 -295 819 -532 474 -769 
L 531 -890 
z
" transform="scale(0.015625)"/>
      <path id="NimbusRomNo9L-Regu-70" d="M 58 2515 
C 115 2521 160 2521 218 2521 
C 435 2521 480 2457 480 2157 
L 480 -839 
C 480 -1172 410 -1242 32 -1280 
L 32 -1389 
L 1581 -1389 
L 1581 -1280 
C 1101 -1274 1018 -1203 1018 -798 
L 1018 211 
C 1242 0 1395 -64 1664 -64 
C 2419 -64 3008 652 3008 1580 
C 3008 2374 2560 2944 1939 2944 
C 1581 2944 1299 2783 1018 2438 
L 1018 2931 
L 979 2944 
C 634 2809 410 2726 58 2617 
L 58 2515 
z
M 1018 2137 
C 1018 2329 1376 2559 1670 2559 
C 2144 2559 2458 2073 2458 1331 
C 2458 620 2144 140 1683 140 
C 1382 140 1018 371 1018 563 
L 1018 2137 
z
" transform="scale(0.015625)"/>
      <path id="NimbusRomNo9L-Regu-3d" d="M 3418 2470 
L 192 2470 
L 192 2048 
L 3418 2048 
L 3418 2470 
z
M 3418 1190 
L 192 1190 
L 192 768 
L 3418 768 
L 3418 1190 
z
" transform="scale(0.015625)"/>
     </defs>
     <use xlink:href="#NimbusRomNo9L-Regu-43" transform="scale(0.996264)"/>
     <use xlink:href="#NimbusRomNo9L-Regu-6c" transform="translate(66.450031 0)scale(0.996264)"/>
     <use xlink:href="#NimbusRomNo9L-Regu-75" transform="translate(94.145201 0)scale(0.996264)"/>
     <use xlink:href="#NimbusRomNo9L-Regu-73" transform="translate(143.958401 0)scale(0.996264)"/>
     <use xlink:href="#NimbusRomNo9L-Regu-74" transform="translate(182.712107 0)scale(0.996264)"/>
     <use xlink:href="#NimbusRomNo9L-Regu-65" transform="translate(210.407277 0)scale(0.996264)"/>
     <use xlink:href="#NimbusRomNo9L-Regu-72" transform="translate(254.640846 0)scale(0.996264)"/>
     <use xlink:href="#NimbusRomNo9L-Regu-45" transform="translate(312.722676 0)scale(0.996264)"/>
     <use xlink:href="#NimbusRomNo9L-Regu-6e" transform="translate(373.594306 0)scale(0.996264)"/>
     <use xlink:href="#NimbusRomNo9L-Regu-72" transform="translate(423.407507 0)scale(0.996264)"/>
     <use xlink:href="#NimbusRomNo9L-Regu-69" transform="translate(456.582737 0)scale(0.996264)"/>
     <use xlink:href="#NimbusRomNo9L-Regu-63" transform="translate(484.277906 0)scale(0.996264)"/>
     <use xlink:href="#NimbusRomNo9L-Regu-68" transform="translate(528.511475 0)scale(0.996264)"/>
     <use xlink:href="#NimbusRomNo9L-Regu-6d" transform="translate(578.324675 0)scale(0.996264)"/>
     <use xlink:href="#NimbusRomNo9L-Regu-65" transform="translate(655.833046 0)scale(0.996264)"/>
     <use xlink:href="#NimbusRomNo9L-Regu-6e" transform="translate(700.066614 0)scale(0.996264)"/>
     <use xlink:href="#NimbusRomNo9L-Regu-74" transform="translate(749.879815 0)scale(0.996264)"/>
     <use xlink:href="#NimbusRomNo9L-Regu-66" transform="translate(802.481585 0)scale(0.996264)"/>
     <use xlink:href="#NimbusRomNo9L-Regu-6f" transform="translate(835.656814 0)scale(0.996264)"/>
     <use xlink:href="#NimbusRomNo9L-Regu-72" transform="translate(885.470015 0)scale(0.996264)"/>
     <use xlink:href="#NimbusRomNo9L-Regu-74" transform="translate(943.551845 0)scale(0.996264)"/>
     <use xlink:href="#NimbusRomNo9L-Regu-2d" transform="translate(971.247014 0)scale(0.996264)"/>
     <use xlink:href="#NimbusRomNo9L-Regu-53" transform="translate(1004.422244 0)scale(0.996264)"/>
     <use xlink:href="#NimbusRomNo9L-Regu-4e" transform="translate(1059.813921 0)scale(0.996264)"/>
     <use xlink:href="#NimbusRomNo9L-Regu-45" transform="translate(1131.743906 0)scale(0.996264)"/>
     <use xlink:href="#NimbusRomNo9L-Regu-2c" transform="translate(1192.615537 0)scale(0.996264)"/>
     <use xlink:href="#NimbusRomNo9L-Regu-63" transform="translate(1242.428737 0)scale(0.996264)"/>
     <use xlink:href="#NimbusRomNo9L-Regu-6f" transform="translate(1286.662306 0)scale(0.996264)"/>
     <use xlink:href="#NimbusRomNo9L-Regu-6d" transform="translate(1336.475506 0)scale(0.996264)"/>
     <use xlink:href="#NimbusRomNo9L-Regu-70" transform="translate(1413.983876 0)scale(0.996264)"/>
     <use xlink:href="#NimbusRomNo9L-Regu-6f" transform="translate(1463.797077 0)scale(0.996264)"/>
     <use xlink:href="#NimbusRomNo9L-Regu-6e" transform="translate(1513.610277 0)scale(0.996264)"/>
     <use xlink:href="#NimbusRomNo9L-Regu-65" transform="translate(1563.423478 0)scale(0.996264)"/>
     <use xlink:href="#NimbusRomNo9L-Regu-6e" transform="translate(1607.657047 0)scale(0.996264)"/>
     <use xlink:href="#NimbusRomNo9L-Regu-74" transform="translate(1657.470247 0)scale(0.996264)"/>
     <use xlink:href="#NimbusRomNo9L-Regu-73" transform="translate(1685.165417 0)scale(0.996264)"/>
     <use xlink:href="#NimbusRomNo9L-Regu-3d" transform="translate(1748.825723 0)scale(0.996264)"/>
     <use xlink:href="#NimbusRomNo9L-Regu-32" transform="translate(1829.920574 0)scale(0.996264)"/>
    </g>
   </g>
  </g>
  <g id="axes_2">
   <g id="patch_7">
    <path d="M 163.092751 1142.734219 
L 1558.092751 1142.734219 
L 1558.092751 638.734219 
L 163.092751 638.734219 
z
" style="fill: #ffffff"/>
   </g>
   <g id="patch_8">
    <path d="M 226.501841 1142.734219 
L 790.138205 1142.734219 
L 790.138205 876.661592 
L 226.501841 876.661592 
z
" clip-path="url(#p9a4a8268a9)" style="fill: #1f77b4; opacity: 0.3"/>
   </g>
   <g id="patch_9">
    <path d="M 931.047296 1142.734219 
L 1494.68366 1142.734219 
L 1494.68366 662.734219 
L 931.047296 662.734219 
z
" clip-path="url(#p9a4a8268a9)" style="fill: #1f77b4; opacity: 0.3"/>
   </g>
   <g id="matplotlib.axis_3">
    <g id="xtick_3">
     <g id="line2d_8">
      <g>
       <use xlink:href="#m22c564e9bf" x="508.320023" y="1172.734219" style="stroke: #000000"/>
      </g>
     </g>
     <g id="text_10">
      <!-- C 1 -->
      <g transform="translate(465.969074 1226.761685)scale(0.6 -0.6)">
       <use xlink:href="#NimbusRomNo9L-Regu-43" transform="scale(0.996264)"/>
       <use xlink:href="#NimbusRomNo9L-Regu-31" transform="translate(91.356631 0)scale(0.996264)"/>
      </g>
     </g>
    </g>
    <g id="xtick_4">
     <g id="line2d_9">
      <g>
       <use xlink:href="#m22c564e9bf" x="1212.865478" y="1172.734219" style="stroke: #000000"/>
      </g>
     </g>
     <g id="text_11">
      <!-- C 2 -->
      <g transform="translate(1170.514528 1226.761685)scale(0.6 -0.6)">
       <use xlink:href="#NimbusRomNo9L-Regu-43" transform="scale(0.996264)"/>
       <use xlink:href="#NimbusRomNo9L-Regu-32" transform="translate(91.356631 0)scale(0.996264)"/>
      </g>
     </g>
    </g>
   </g>
   <g id="matplotlib.axis_4">
    <g id="ytick_6">
     <g id="line2d_10">
      <defs>
       <path id="m4c9e7fe91f" d="M 0 0 
L -3.5 0 
" style="stroke: #000000"/>
      </defs>
      <g>
       <use xlink:href="#m4c9e7fe91f" x="133.092751" y="1142.734219" style="stroke: #000000"/>
      </g>
     </g>
     <g id="text_12">
      <!-- $\mathdefault{0.00}$ -->
      <g transform="translate(62.941515 1153.541546)scale(0.32 -0.32)">
       <use xlink:href="#NimbusRomNo9L-Regu-30" transform="scale(0.996264)"/>
       <use xlink:href="#CMMI10-3a" transform="translate(49.8132 0)scale(0.996264)"/>
       <use xlink:href="#NimbusRomNo9L-Regu-30" transform="translate(77.408707 0)scale(0.996264)"/>
       <use xlink:href="#NimbusRomNo9L-Regu-30" transform="translate(127.221908 0)scale(0.996264)"/>
      </g>
     </g>
    </g>
    <g id="ytick_7">
     <g id="line2d_11">
      <g>
       <use xlink:href="#m4c9e7fe91f" x="133.092751" y="1053.027193" style="stroke: #000000"/>
      </g>
     </g>
     <g id="text_13">
      <!-- $\mathdefault{0.25}$ -->
      <g transform="translate(62.941515 1063.83452)scale(0.32 -0.32)">
       <defs>
        <path id="NimbusRomNo9L-Regu-35" d="M 1158 3718 
L 2413 3718 
C 2515 3718 2541 3731 2560 3775 
L 2803 4345 
L 2746 4390 
C 2650 4256 2586 4224 2451 4224 
L 1114 4224 
L 416 2717 
C 410 2705 410 2698 410 2686 
C 410 2654 435 2635 486 2635 
C 691 2635 947 2591 1210 2508 
C 1946 2274 2285 1882 2285 1255 
C 2285 647 1894 172 1395 172 
C 1267 172 1158 217 966 356 
C 762 502 614 565 480 565 
C 294 565 205 489 205 331 
C 205 89 506 -64 986 -64 
C 1523 -64 1984 108 2304 432 
C 2598 717 2733 1078 2733 1559 
C 2733 2015 2611 2306 2291 2622 
C 2010 2901 1645 3047 890 3180 
L 1158 3718 
z
" transform="scale(0.015625)"/>
       </defs>
       <use xlink:href="#NimbusRomNo9L-Regu-30" transform="scale(0.996264)"/>
       <use xlink:href="#CMMI10-3a" transform="translate(49.8132 0)scale(0.996264)"/>
       <use xlink:href="#NimbusRomNo9L-Regu-32" transform="translate(77.408707 0)scale(0.996264)"/>
       <use xlink:href="#NimbusRomNo9L-Regu-35" transform="translate(127.221908 0)scale(0.996264)"/>
      </g>
     </g>
    </g>
    <g id="ytick_8">
     <g id="line2d_12">
      <g>
       <use xlink:href="#m4c9e7fe91f" x="133.092751" y="963.320167" style="stroke: #000000"/>
      </g>
     </g>
     <g id="text_14">
      <!-- $\mathdefault{0.50}$ -->
      <g transform="translate(62.941515 974.127494)scale(0.32 -0.32)">
       <use xlink:href="#NimbusRomNo9L-Regu-30" transform="scale(0.996264)"/>
       <use xlink:href="#CMMI10-3a" transform="translate(49.8132 0)scale(0.996264)"/>
       <use xlink:href="#NimbusRomNo9L-Regu-35" transform="translate(77.408707 0)scale(0.996264)"/>
       <use xlink:href="#NimbusRomNo9L-Regu-30" transform="translate(127.221908 0)scale(0.996264)"/>
      </g>
     </g>
    </g>
    <g id="ytick_9">
     <g id="line2d_13">
      <g>
       <use xlink:href="#m4c9e7fe91f" x="133.092751" y="873.613141" style="stroke: #000000"/>
      </g>
     </g>
     <g id="text_15">
      <!-- $\mathdefault{0.75}$ -->
      <g transform="translate(62.941515 884.420468)scale(0.32 -0.32)">
       <defs>
        <path id="NimbusRomNo9L-Regu-37" d="M 2874 4224 
L 506 4224 
L 128 3283 
L 237 3232 
C 512 3667 627 3750 979 3750 
L 2368 3750 
L 1101 -64 
L 1517 -64 
L 2874 4121 
L 2874 4224 
z
" transform="scale(0.015625)"/>
       </defs>
       <use xlink:href="#NimbusRomNo9L-Regu-30" transform="scale(0.996264)"/>
       <use xlink:href="#CMMI10-3a" transform="translate(49.8132 0)scale(0.996264)"/>
       <use xlink:href="#NimbusRomNo9L-Regu-37" transform="translate(77.408707 0)scale(0.996264)"/>
       <use xlink:href="#NimbusRomNo9L-Regu-35" transform="translate(127.221908 0)scale(0.996264)"/>
      </g>
     </g>
    </g>
    <g id="ytick_10">
     <g id="line2d_14">
      <g>
       <use xlink:href="#m4c9e7fe91f" x="133.092751" y="783.906115" style="stroke: #000000"/>
      </g>
     </g>
     <g id="text_16">
      <!-- $\mathdefault{1.00}$ -->
      <g transform="translate(62.941515 794.713442)scale(0.32 -0.32)">
       <use xlink:href="#NimbusRomNo9L-Regu-31" transform="scale(0.996264)"/>
       <use xlink:href="#CMMI10-3a" transform="translate(49.8132 0)scale(0.996264)"/>
       <use xlink:href="#NimbusRomNo9L-Regu-30" transform="translate(77.408707 0)scale(0.996264)"/>
       <use xlink:href="#NimbusRomNo9L-Regu-30" transform="translate(127.221908 0)scale(0.996264)"/>
      </g>
     </g>
    </g>
    <g id="ytick_11">
     <g id="line2d_15">
      <g>
       <use xlink:href="#m4c9e7fe91f" x="133.092751" y="694.199088" style="stroke: #000000"/>
      </g>
     </g>
     <g id="text_17">
      <!-- $\mathdefault{1.25}$ -->
      <g transform="translate(62.941515 705.006416)scale(0.32 -0.32)">
       <use xlink:href="#NimbusRomNo9L-Regu-31" transform="scale(0.996264)"/>
       <use xlink:href="#CMMI10-3a" transform="translate(49.8132 0)scale(0.996264)"/>
       <use xlink:href="#NimbusRomNo9L-Regu-32" transform="translate(77.408707 0)scale(0.996264)"/>
       <use xlink:href="#NimbusRomNo9L-Regu-35" transform="translate(127.221908 0)scale(0.996264)"/>
      </g>
     </g>
    </g>
    <g id="text_18">
     <!-- Fold enrichment -->
     <g transform="translate(36.471028 988.885295)rotate(-90)scale(0.3 -0.3)">
      <defs>
       <path id="NimbusRomNo9L-Regu-46" d="M 3066 1491 
L 3066 2966 
L 2918 2966 
C 2842 2462 2726 2368 2214 2368 
L 1286 2368 
L 1286 3766 
C 1286 3942 1318 3980 1491 3980 
L 2362 3980 
C 3085 3980 3226 3886 3334 3319 
L 3494 3319 
L 3475 4224 
L 77 4224 
L 77 4102 
C 550 4064 634 3976 634 3534 
L 634 772 
C 634 237 563 153 77 121 
L 77 0 
L 1869 0 
L 1869 121 
C 1376 147 1286 237 1286 701 
L 1286 2105 
L 2214 2105 
C 2733 2105 2842 2008 2918 1487 
L 3066 1491 
z
" transform="scale(0.015625)"/>
       <path id="NimbusRomNo9L-Regu-64" d="M 2202 -64 
L 3142 268 
L 3142 371 
C 3027 364 3014 364 2995 364 
C 2765 364 2714 435 2714 729 
L 2714 4358 
L 2682 4371 
C 2374 4262 2150 4198 1741 4089 
L 1741 3987 
C 1792 3993 1830 3993 1882 3993 
C 2118 3993 2176 3929 2176 3667 
L 2176 2668 
C 1933 2873 1760 2944 1504 2944 
C 768 2944 173 2220 173 1312 
C 173 492 653 -64 1357 -64 
C 1715 -64 1958 64 2176 364 
L 2176 -45 
L 2202 -64 
z
M 2176 652 
C 2176 608 2131 531 2067 460 
C 1952 332 1792 268 1606 268 
C 1075 268 723 780 723 1568 
C 723 2291 1037 2764 1523 2764 
C 1862 2764 2176 2464 2176 2124 
L 2176 652 
z
" transform="scale(0.015625)"/>
      </defs>
      <use xlink:href="#NimbusRomNo9L-Regu-46" transform="scale(0.996264)"/>
      <use xlink:href="#NimbusRomNo9L-Regu-6f" transform="translate(53.898284 0)scale(0.996264)"/>
      <use xlink:href="#NimbusRomNo9L-Regu-6c" transform="translate(103.711485 0)scale(0.996264)"/>
      <use xlink:href="#NimbusRomNo9L-Regu-64" transform="translate(131.406654 0)scale(0.996264)"/>
      <use xlink:href="#NimbusRomNo9L-Regu-65" transform="translate(206.126455 0)scale(0.996264)"/>
      <use xlink:href="#NimbusRomNo9L-Regu-6e" transform="translate(250.360024 0)scale(0.996264)"/>
      <use xlink:href="#NimbusRomNo9L-Regu-72" transform="translate(300.173224 0)scale(0.996264)"/>
      <use xlink:href="#NimbusRomNo9L-Regu-69" transform="translate(333.348454 0)scale(0.996264)"/>
      <use xlink:href="#NimbusRomNo9L-Regu-63" transform="translate(361.043624 0)scale(0.996264)"/>
      <use xlink:href="#NimbusRomNo9L-Regu-68" transform="translate(405.277192 0)scale(0.996264)"/>
      <use xlink:href="#NimbusRomNo9L-Regu-6d" transform="translate(455.090393 0)scale(0.996264)"/>
      <use xlink:href="#NimbusRomNo9L-Regu-65" transform="translate(532.598763 0)scale(0.996264)"/>
      <use xlink:href="#NimbusRomNo9L-Regu-6e" transform="translate(576.832332 0)scale(0.996264)"/>
      <use xlink:href="#NimbusRomNo9L-Regu-74" transform="translate(626.645532 0)scale(0.996264)"/>
     </g>
    </g>
   </g>
   <g id="line2d_16">
    <path d="M 508.320023 783.906115 
L 1212.865478 783.906115 
" clip-path="url(#p9a4a8268a9)" style="fill: none; stroke-dasharray: 5.55,2.4; stroke-dashoffset: 0; stroke: #ff0000; stroke-width: 1.5"/>
   </g>
   <g id="patch_10">
    <path d="M 133.092751 1142.734219 
L 133.092751 638.734219 
" style="fill: none; stroke: #000000; stroke-width: 0.75; stroke-linejoin: miter; stroke-linecap: square"/>
   </g>
   <g id="patch_11">
    <path d="M 163.092751 1172.734219 
L 1558.092751 1172.734219 
" style="fill: none; stroke: #000000; stroke-width: 0.75; stroke-linejoin: miter; stroke-linecap: square"/>
   </g>
   <g id="text_19">
    <!-- Cluster enrichment of Excluded -->
    <g transform="translate(670.089 632.263733)scale(0.3 -0.3)">
     <defs>
      <path id="NimbusRomNo9L-Regu-78" d="M 1779 0 
L 3066 0 
L 3066 96 
C 2867 96 2739 198 2541 480 
L 1722 1734 
L 2253 2502 
C 2374 2675 2566 2777 2771 2783 
L 2771 2880 
L 1760 2880 
L 1760 2783 
C 1952 2771 2016 2732 2016 2643 
C 2016 2566 1939 2425 1779 2227 
C 1747 2188 1670 2073 1587 1945 
L 1498 2073 
C 1318 2342 1203 2560 1203 2643 
C 1203 2732 1286 2777 1478 2783 
L 1478 2880 
L 154 2880 
L 154 2783 
L 211 2783 
C 403 2783 506 2700 704 2400 
L 1306 1478 
L 576 422 
C 384 160 320 115 109 96 
L 109 0 
L 1037 0 
L 1037 96 
C 858 96 781 128 781 211 
C 781 249 826 345 909 473 
L 1414 1260 
L 1997 364 
C 2022 326 2035 288 2035 249 
C 2035 134 1990 108 1779 96 
L 1779 0 
z
" transform="scale(0.015625)"/>
     </defs>
     <use xlink:href="#NimbusRomNo9L-Regu-43" transform="scale(0.996264)"/>
     <use xlink:href="#NimbusRomNo9L-Regu-6c" transform="translate(66.450031 0)scale(0.996264)"/>
     <use xlink:href="#NimbusRomNo9L-Regu-75" transform="translate(94.145201 0)scale(0.996264)"/>
     <use xlink:href="#NimbusRomNo9L-Regu-73" transform="translate(143.958401 0)scale(0.996264)"/>
     <use xlink:href="#NimbusRomNo9L-Regu-74" transform="translate(182.712107 0)scale(0.996264)"/>
     <use xlink:href="#NimbusRomNo9L-Regu-65" transform="translate(210.407277 0)scale(0.996264)"/>
     <use xlink:href="#NimbusRomNo9L-Regu-72" transform="translate(254.640846 0)scale(0.996264)"/>
     <use xlink:href="#NimbusRomNo9L-Regu-65" transform="translate(312.722676 0)scale(0.996264)"/>
     <use xlink:href="#NimbusRomNo9L-Regu-6e" transform="translate(356.956244 0)scale(0.996264)"/>
     <use xlink:href="#NimbusRomNo9L-Regu-72" transform="translate(406.769445 0)scale(0.996264)"/>
     <use xlink:href="#NimbusRomNo9L-Regu-69" transform="translate(439.944675 0)scale(0.996264)"/>
     <use xlink:href="#NimbusRomNo9L-Regu-63" transform="translate(467.639844 0)scale(0.996264)"/>
     <use xlink:href="#NimbusRomNo9L-Regu-68" transform="translate(511.873413 0)scale(0.996264)"/>
     <use xlink:href="#NimbusRomNo9L-Regu-6d" transform="translate(561.686613 0)scale(0.996264)"/>
     <use xlink:href="#NimbusRomNo9L-Regu-65" transform="translate(639.194984 0)scale(0.996264)"/>
     <use xlink:href="#NimbusRomNo9L-Regu-6e" transform="translate(683.428552 0)scale(0.996264)"/>
     <use xlink:href="#NimbusRomNo9L-Regu-74" transform="translate(733.241753 0)scale(0.996264)"/>
     <use xlink:href="#NimbusRomNo9L-Regu-6f" transform="translate(785.843523 0)scale(0.996264)"/>
     <use xlink:href="#NimbusRomNo9L-Regu-66" transform="translate(835.656723 0)scale(0.996264)"/>
     <use xlink:href="#NimbusRomNo9L-Regu-45" transform="translate(893.738553 0)scale(0.996264)"/>
     <use xlink:href="#NimbusRomNo9L-Regu-78" transform="translate(954.610184 0)scale(0.996264)"/>
     <use xlink:href="#NimbusRomNo9L-Regu-63" transform="translate(1004.423384 0)scale(0.996264)"/>
     <use xlink:href="#NimbusRomNo9L-Regu-6c" transform="translate(1048.656953 0)scale(0.996264)"/>
     <use xlink:href="#NimbusRomNo9L-Regu-75" transform="translate(1076.352123 0)scale(0.996264)"/>
     <use xlink:href="#NimbusRomNo9L-Regu-64" transform="translate(1126.165323 0)scale(0.996264)"/>
     <use xlink:href="#NimbusRomNo9L-Regu-65" transform="translate(1175.978524 0)scale(0.996264)"/>
     <use xlink:href="#NimbusRomNo9L-Regu-64" transform="translate(1220.212092 0)scale(0.996264)"/>
    </g>
   </g>
  </g>
 </g>
 <defs>
  <clipPath id="p050ccd85ea">
   <rect x="163.092751" y="33.934219" width="1395" height="504"/>
  </clipPath>
  <clipPath id="p9a4a8268a9">
   <rect x="163.092751" y="638.734219" width="1395" height="504"/>
  </clipPath>
 </defs>
</svg>
